<svg width="26" height="26" viewBox="0 0 26 26" fill="none" xmlns="http://www.w3.org/2000/svg">
<g clip-path="url(#clip0)">
<path d="M24.1726 5.11369H6.18198C5.97119 5.11369 5.8003 5.28453 5.8003 5.49537C5.8003 5.7062 5.97119 5.87704 6.18198 5.87704H24.1726C24.7594 5.87704 25.2367 6.35438 25.2367 6.94114V15.0678C25.2367 15.6545 24.7594 16.1319 24.1726 16.1319H23.2587V13.645C23.2587 13.4342 23.0878 13.2634 22.877 13.2634H3.123C2.91221 13.2634 2.74133 13.4342 2.74133 13.645V16.1319H1.82745C1.24069 16.1319 0.763345 15.6545 0.763345 15.0678V6.94114C0.763345 6.35438 1.24069 5.87704 1.82745 5.87704H4.65529C4.86607 5.87704 5.03696 5.7062 5.03696 5.49537C5.03696 5.28453 4.86607 5.11369 4.65529 5.11369H1.82745C0.819782 5.11369 0 5.93348 0 6.94114V15.0678C0 16.0754 0.819782 16.8952 1.82745 16.8952H5.80046C6.01124 16.8952 6.18213 16.7244 6.18213 16.5135C6.18213 16.3028 6.01124 16.1319 5.80046 16.1319H3.50467V15.4609H18.6729C18.8837 15.4609 19.0546 15.2901 19.0546 15.0793C19.0546 14.8684 18.8837 14.6976 18.6729 14.6976H3.50467V14.0267H22.4953V14.6976H20.1996C19.9888 14.6976 19.8179 14.8684 19.8179 15.0793C19.8179 15.2901 19.9888 15.4609 20.1996 15.4609H22.4953V16.1319H7.3271C7.11631 16.1319 6.94542 16.3028 6.94542 16.5135C6.94542 16.7244 7.11631 16.8952 7.3271 16.8952H24.1726C25.1803 16.8952 26 16.0754 26 15.0678V6.94114C26 5.93353 25.1802 5.11369 24.1726 5.11369Z" fill="#4A4A4A"/>
<path d="M22.8772 8.217C23.0879 8.217 23.2588 8.04617 23.2588 7.83533C23.2588 7.6245 23.0879 7.45366 22.8772 7.45366H21.7484C21.5376 7.45366 21.3667 7.6245 21.3667 7.83533C21.3667 8.04617 21.5376 8.217 21.7484 8.217H22.8772Z" fill="#4A4A4A"/>
<path d="M20.0066 8.217C20.2174 8.217 20.3883 8.04617 20.3883 7.83533C20.3883 7.6245 20.2174 7.45366 20.0066 7.45366H12.7826C12.5718 7.45366 12.4009 7.6245 12.4009 7.83533C12.4009 8.04617 12.5718 8.217 12.7826 8.217H20.0066Z" fill="#4A4A4A"/>
<path d="M7.17974 17.9164C6.96895 17.9164 6.79807 18.0872 6.79807 18.2981C6.79807 18.3094 6.7858 19.4409 5.72699 20.1935C5.55519 20.3156 5.51488 20.5539 5.63702 20.7257C5.71147 20.8305 5.82903 20.8863 5.94846 20.8863C6.02495 20.8863 6.1022 20.8633 6.16927 20.8156C7.54564 19.8373 7.56146 18.3604 7.56146 18.298C7.56141 18.0872 7.39053 17.9164 7.17974 17.9164Z" fill="#4A4A4A"/>
<path d="M9.91243 17.9164C9.70165 17.9164 9.53076 18.0872 9.53076 18.2981V20.5046C9.53076 20.7154 9.70165 20.8862 9.91243 20.8862C10.1232 20.8862 10.2941 20.7154 10.2941 20.5046V18.2981C10.2941 18.0872 10.1232 17.9164 9.91243 17.9164Z" fill="#4A4A4A"/>
<path d="M13.1073 17.9164C12.8965 17.9164 12.7256 18.0872 12.7256 18.2981V20.5046C12.7256 20.7154 12.8965 20.8862 13.1073 20.8862C13.318 20.8862 13.4889 20.7154 13.4889 20.5046V18.2981C13.4889 18.0872 13.318 17.9164 13.1073 17.9164Z" fill="#4A4A4A"/>
<path d="M20.2734 20.1935C19.2288 19.451 19.2029 18.3471 19.2023 18.2964C19.2014 18.0863 19.0309 17.9164 18.8206 17.9164C18.6099 17.9164 18.439 18.0872 18.439 18.2981C18.439 18.3605 18.4548 19.8374 19.8312 20.8157C19.8982 20.8634 19.9755 20.8863 20.052 20.8863C20.1714 20.8863 20.289 20.8304 20.3634 20.7257C20.4855 20.5539 20.4452 20.3156 20.2734 20.1935Z" fill="#4A4A4A"/>
<path d="M16.0877 17.9164C15.8769 17.9164 15.7061 18.0872 15.7061 18.2981V20.5046C15.7061 20.7154 15.8769 20.8862 16.0877 20.8862C16.2985 20.8862 16.4694 20.7154 16.4694 20.5046V18.2981C16.4694 18.0872 16.2985 17.9164 16.0877 17.9164Z" fill="#4A4A4A"/>
</g>
<defs>
<clipPath id="clip0">
<rect width="26" height="26" fill="white"/>
</clipPath>
</defs>
</svg>
