<svg width="25" height="24" viewBox="0 0 25 24" fill="none" xmlns="http://www.w3.org/2000/svg">
<path d="M8.5 1C8.5 0.723858 8.72386 0.5 9 0.5L21.5 0.500002L21.5 23.5L9 23.5C8.72385 23.5 8.5 23.2761 8.5 23L8.5 1Z" stroke="#C4C4C4"/>
<path d="M0.5 4C0.5 3.72386 0.723858 3.5 1 3.5L21.5 3.5L21.5 20C21.5 20.2761 21.2761 20.5 21 20.5L0.999997 20.5C0.723855 20.5 0.499997 20.2761 0.499997 20L0.5 4Z" fill="white" stroke="#C4C4C4"/>
<rect width="3" height="12" transform="matrix(-1 -1.74846e-07 -1.74846e-07 1 25 6)" fill="#C4C4C4"/>
</svg>
