<svg width="25" height="24" viewBox="0 0 25 24" fill="none" xmlns="http://www.w3.org/2000/svg">
<path d="M8.5 1C8.5 0.723858 8.72386 0.5 9 0.5L21.5 0.500002L21.5 23.5L9 23.5C8.72385 23.5 8.5 23.2761 8.5 23L8.5 1Z" stroke="#C4C4C4"/>
<path d="M-1.74846e-07 4C-7.82811e-08 3.44772 0.447715 3 1 3L22 3L22 20C22 20.5523 21.5523 21 21 21L0.999997 21C0.447712 21 -3.06894e-06 20.5523 -2.97237e-06 20L-1.74846e-07 4Z" fill="#C4C4C4"/>
<rect width="3" height="12" transform="matrix(-1 -1.74846e-07 -1.74846e-07 1 25 6)" fill="#C4C4C4"/>
</svg>
