<svg width="32" height="32" viewBox="0 0 32 32" fill="none" xmlns="http://www.w3.org/2000/svg">
<g clip-path="url(#clip0)">
<path d="M15.9998 15.4285C16.3154 15.4285 16.5713 15.6844 16.5713 16C16.5713 16.3157 16.3154 16.5716 15.9998 16.5716C15.6841 16.5716 15.4282 16.3157 15.4282 16C15.4282 15.6844 15.6841 15.4285 15.9998 15.4285Z" fill="#ABABAB"/>
<path d="M18.3318 20.5143C19.4082 19.1041 21.0828 18.2794 22.8569 18.2855L28.9397 18.2855C29.2102 16.7738 29.2102 15.2259 28.9397 13.7142L22.8569 13.7142C21.0823 13.713 19.4087 12.8873 18.3279 11.4796C17.2471 10.0721 16.8818 8.24205 17.3391 6.52721L18.2632 3.05577C16.8262 2.80186 15.3569 2.79112 13.9163 3.02379C12.9375 5.73302 11.4282 10.7587 11.4282 15.9999C11.4282 21.2411 12.9375 26.2667 13.9163 28.9759C15.3569 29.2086 16.8262 29.1979 18.2632 28.944L17.3391 25.4725C16.8752 23.7555 17.2427 21.9203 18.3318 20.5143ZM11.9998 15.9999C11.9998 13.7906 13.7905 11.9999 15.9998 11.9999C18.209 11.9999 19.9998 13.7906 19.9998 15.9999C19.9998 18.2091 18.209 19.9999 15.9998 19.9999C13.7917 19.9974 12.0022 18.2079 11.9998 15.9999Z" fill="#ABABAB"/>
<path d="M18.8569 15.9998C18.8569 14.4219 17.5776 13.1426 15.9998 13.1426C14.4219 13.1426 13.1426 14.4219 13.1426 15.9998C13.1426 17.5777 14.4219 18.857 15.9998 18.857C17.5769 18.855 18.855 17.577 18.8569 15.9998ZM14.2854 15.9998C14.2854 15.053 15.053 14.2855 15.9998 14.2855C16.9465 14.2855 17.7141 15.053 17.7141 15.9998C17.7141 16.9466 16.9465 17.7142 15.9998 17.7142C15.053 17.7142 14.2854 16.9466 14.2854 15.9998Z" fill="#ABABAB"/>
<path d="M32 16C32 7.16333 24.8367 -1.08565e-06 16 -6.99382e-07C7.16333 -3.13119e-07 -1.08565e-06 7.16333 -6.99382e-07 16C-3.13119e-07 24.8367 7.16333 32 16 32C24.8323 31.99 31.99 24.8323 32 16ZM1.71435 16C1.71435 8.11011 8.11011 1.71436 16 1.71435C23.8899 1.71435 30.2856 8.11011 30.2856 16C30.2856 23.8899 23.8899 30.2856 16 30.2856C8.11377 30.2769 1.72314 23.8862 1.71435 16Z" fill="#ABABAB"/>
</g>
<defs>
<clipPath id="clip0">
<rect width="32" height="32" fill="white" transform="translate(0 32) rotate(-90)"/>
</clipPath>
</defs>
</svg>
