<svg width="18" height="18" viewBox="0 0 18 18" fill="none" xmlns="http://www.w3.org/2000/svg">
<g clip-path="url(#clip0)">
<path d="M1.59412 10.5127C1.29419 10.8533 0.864487 11.7028 1.3781 12.4805C1.47231 12.6104 1.65221 12.6432 1.78624 12.5548C1.92027 12.4665 1.96092 12.2882 1.87852 12.1505C1.49098 11.5637 2.02258 10.9358 2.04565 10.9087C2.14261 10.7834 2.1253 10.6043 2.00624 10.4998C1.88718 10.3953 1.70741 10.4013 1.59563 10.5136L1.59412 10.5127Z" fill="#4A4A4A"/>
<path d="M17.5953 10.1406C17.2387 9.51628 16.667 9.04305 15.9869 8.80918C15.9354 8.5977 15.773 8.43085 15.5629 8.37386L15.273 8.29627L15.7746 6.42065C16.1849 4.88945 15.8598 3.25444 14.8949 1.99666C13.93 0.738743 12.4351 0.00115966 10.8499 0.000747681H7.14786C5.56269 0.00115966 4.06775 0.738743 3.10289 1.99666C2.13803 3.25444 1.81284 4.88945 2.22317 6.42065L2.72483 8.2953L2.43493 8.37303C2.22482 8.43002 2.06236 8.59674 2.01073 8.80836C0.903735 9.19438 0.123305 10.1903 0.0133056 11.3576C-0.0968307 12.5247 0.483651 13.649 1.49905 14.2353C1.77892 14.3952 2.08283 14.5088 2.39895 14.5718V15.4385C2.39978 15.6402 2.50099 15.8284 2.66894 15.9402L4.25561 16.997C4.35394 17.0639 4.46998 17.0999 4.58891 17.1004H7.24152C7.37788 17.6287 7.85331 17.9984 8.39891 18.0005H9.59888C10.2616 18.0005 10.7988 17.4633 10.7988 16.8005C10.7988 16.1378 10.2616 15.6006 9.59888 15.6006H8.39891C7.85331 15.6026 7.37788 15.9723 7.24152 16.5005H4.59042L2.99893 15.4385V14.6384C3.1879 14.6361 3.37603 14.6161 3.56115 14.5784C3.70795 14.7398 3.93276 14.8053 4.14314 14.7479L5.59208 14.3597C5.74589 14.3185 5.8769 14.2179 5.95641 14.0801C6.03606 13.9422 6.05762 13.7785 6.01629 13.6247L4.61898 8.40819L4.61624 8.40063L3.96077 5.9547C3.69518 4.96389 3.90571 3.90578 4.53013 3.09198C5.15456 2.27804 6.12203 1.80083 7.14786 1.80069H10.8499C11.876 1.80069 12.8438 2.27804 13.4682 3.09226C14.0928 3.90647 14.303 4.96485 14.037 5.95594L13.3813 8.40269L13.3791 8.40846L11.9815 13.6239C11.9402 13.7775 11.9616 13.9415 12.0411 14.0794C12.1208 14.2173 12.2519 14.3179 12.4057 14.3591L13.8546 14.7473C14.065 14.8046 14.2898 14.7392 14.4366 14.5779C15.9795 14.8788 17.4919 13.9329 17.8962 12.4136C18.1048 11.6462 17.9963 10.8272 17.5953 10.1406ZM8.39891 16.2005H9.59888C9.93025 16.2005 10.1989 16.4692 10.1989 16.8005C10.1989 17.1319 9.93025 17.4005 9.59888 17.4005H8.39891C8.06754 17.4005 7.79893 17.1319 7.79893 16.8005C7.79893 16.4692 8.06754 16.2005 8.39891 16.2005ZM0.680853 12.2586C0.369669 11.0907 0.97487 9.87347 2.09395 9.41672L3.32385 14.0136C2.12595 14.1792 0.992173 13.4268 0.679342 12.2586H0.680853ZM3.98893 14.1677L2.59039 8.95173L4.03878 8.56378L4.81509 11.4606V11.4623L5.43608 13.7799L3.98893 14.1677ZM13.9425 2.72587C13.2074 1.76114 12.0627 1.19673 10.8499 1.20071H7.14786C5.93526 1.20071 4.79147 1.76485 4.05347 2.7271C3.31534 3.68922 3.06691 4.94013 3.38112 6.11139L3.88332 7.98426L3.30435 8.1393L2.80283 6.26492C2.44084 4.9139 2.72785 3.47142 3.57914 2.36181C4.43043 1.25207 5.74932 0.601279 7.14786 0.60073H10.8499C12.2486 0.601142 13.5675 1.25207 14.4188 2.36181C15.2701 3.47169 15.5569 4.91417 15.195 6.2652L14.6934 8.1393L14.1145 7.98426L14.6167 6.11139C14.9347 4.93958 14.6852 3.68647 13.9425 2.72587ZM12.5625 13.7796L12.4848 14.0694L13.182 11.4606V11.459L13.9585 8.56268L15.4069 8.95049L14.0089 14.1677L12.5625 13.7796ZM17.3183 12.2586C17.0059 13.4269 15.8718 14.1794 14.6739 14.0132L15.9053 9.41672C17.0244 9.87347 17.6296 11.0907 17.3183 12.2586Z" fill="#4A4A4A"/>
<path d="M15.9801 10.4855C15.8559 10.5949 15.8438 10.7843 15.9532 10.9087C15.9586 10.9153 16.5115 11.5561 16.1194 12.1495C16.0754 12.2159 16.0598 12.2971 16.0759 12.3751C16.0918 12.4531 16.1381 12.5215 16.2045 12.5653C16.3425 12.6557 16.5277 12.6176 16.6189 12.4802C17.1325 11.7025 16.7022 10.853 16.4028 10.5124C16.2935 10.3885 16.1044 10.3764 15.9801 10.4855Z" fill="#4A4A4A"/>
</g>
<defs>
<clipPath id="clip0">
<rect width="18" height="18" fill="white"/>
</clipPath>
</defs>
</svg>
