<svg width="17" height="17" viewBox="0 0 17 17" fill="none" xmlns="http://www.w3.org/2000/svg">
<path d="M11.9003 4.53333H10.2003V1.41667H10.7669C10.9234 1.41667 11.0503 1.2898 11.0503 1.13333V0.283333C11.0503 0.126864 10.9234 0 10.7669 0H6.23359C6.07712 0 5.95026 0.126864 5.95026 0.283333V1.13333C5.95026 1.2898 6.07712 1.41667 6.23359 1.41667H6.80026V4.53333H5.10026C4.31819 4.5343 3.68456 5.16793 3.68359 5.95V14.7333C3.68456 15.5154 4.31819 16.149 5.10026 16.15V16.7167C5.10026 16.8731 5.22712 17 5.38359 17H6.51693C6.6734 17 6.80026 16.8731 6.80026 16.7167V16.15H10.2003V16.7167C10.2003 16.8731 10.3271 17 10.4836 17H11.6169C11.7734 17 11.9003 16.8731 11.9003 16.7167V16.15C12.6823 16.149 13.316 15.5154 13.3169 14.7333V5.95C13.316 5.16793 12.6823 4.5343 11.9003 4.53333ZM6.51693 0.566667H10.4836V0.85H6.51693V0.566667ZM7.36693 1.41667H9.63359V4.53333H7.36693V1.41667ZM6.23359 16.4333H5.66693V16.15H6.23359V16.4333ZM11.3336 16.4333H10.7669V16.15H11.3336V16.4333ZM12.7503 14.7333C12.7503 15.2027 12.3697 15.5833 11.9003 15.5833H5.10026C4.63085 15.5833 4.25026 15.2027 4.25026 14.7333V5.95C4.25026 5.48059 4.63085 5.1 5.10026 5.1H11.9003C12.3697 5.1 12.7503 5.48059 12.7503 5.95V14.7333Z" fill="#4A4A4A"/>
<path d="M8.50013 5.66667C8.34366 5.66667 8.2168 5.79354 8.2168 5.95001V14.7333C8.2168 14.8898 8.34366 15.0167 8.50013 15.0167C8.6566 15.0167 8.78346 14.8898 8.78346 14.7333V5.95001C8.78346 5.79354 8.6566 5.66667 8.50013 5.66667Z" fill="#4A4A4A"/>
<path d="M11.2833 6.23334C11.1269 6.23334 11 6.3602 11 6.51667V14.1667C11 14.3231 11.1269 14.45 11.2833 14.45C11.4398 14.45 11.5667 14.3231 11.5667 14.1667V6.51667C11.5667 6.3602 11.4398 6.23334 11.2833 6.23334Z" fill="#4A4A4A"/>
<path d="M6.23353 6.23334C6.07706 6.23334 5.9502 6.3602 5.9502 6.51667V14.1667C5.9502 14.3231 6.07706 14.45 6.23353 14.45C6.39 14.45 6.51686 14.3231 6.51686 14.1667V6.51667C6.51686 6.3602 6.39 6.23334 6.23353 6.23334Z" fill="#4A4A4A"/>
</svg>
