<svg width="19" height="18" viewBox="0 0 19 18" fill="none" xmlns="http://www.w3.org/2000/svg">
<path d="M17.853 0.982193H1.14702C0.51456 0.982193 0 1.46967 0 2.06884V12.9961C0 13.5953 0.51456 14.0827 1.14702 14.0827H6.87152V14.8734C6.87152 15.5982 6.24904 16.1879 5.48396 16.1879H4.22235C3.98047 16.1879 3.78435 16.3737 3.78435 16.6029C3.78435 16.8321 3.98047 17.0178 4.22235 17.0178H14.7776C15.0195 17.0178 15.2156 16.8321 15.2156 16.6029C15.2156 16.3737 15.0195 16.1879 14.7776 16.1879H13.516C12.7509 16.1879 12.1284 15.5982 12.1284 14.8734V14.0828H17.8529C18.4854 14.0828 19 13.5953 19 12.9961V2.06884C19 1.46967 18.4855 0.982193 17.853 0.982193ZM7.27048 16.188C7.56906 15.8246 7.7476 15.3686 7.7476 14.8735V14.0828H11.2525V14.8735C11.2525 15.3686 11.431 15.8247 11.7296 16.188H7.27048ZM18.124 12.9961C18.124 13.1377 18.0025 13.2529 17.853 13.2529H1.14702C0.997576 13.2529 0.875968 13.1377 0.875968 12.9961V10.8153H18.124V12.9961ZM18.124 9.98534H0.876006V2.06884C0.876006 1.92727 0.997576 1.81206 1.14705 1.81206H17.853C18.0024 1.81206 18.1241 1.92723 18.1241 2.06884V9.98534H18.124Z" fill="#4A4A4A"/>
<path d="M9.50004 6.41363C9.76111 6.41363 9.97274 6.21314 9.97274 5.96581C9.97274 5.71849 9.76111 5.51799 9.50004 5.51799C9.23898 5.51799 9.02734 5.71849 9.02734 5.96581C9.02734 6.21314 9.23898 6.41363 9.50004 6.41363Z" fill="#4A4A4A"/>
<path d="M10.2509 10.6396C10.0798 10.4776 9.80259 10.4776 9.63144 10.6396L6.53599 13.5722C6.36496 13.7342 6.36496 13.9969 6.53599 14.159C6.62157 14.2401 6.7336 14.2806 6.84575 14.2806C6.95789 14.2806 7.06992 14.2401 7.15546 14.159L10.2509 11.2265C10.4219 11.0645 10.4219 10.8017 10.2509 10.6396Z" fill="#4A4A4A"/>
<path d="M12.0858 10.7046C11.9148 10.5426 11.6376 10.5426 11.4664 10.7046L10.2333 11.8727C10.0622 12.0348 10.0622 12.2976 10.2333 12.4596C10.3188 12.5406 10.4309 12.5811 10.543 12.5811C10.655 12.5811 10.7672 12.5406 10.8527 12.4596L12.0858 11.2914C12.2569 11.1294 12.2569 10.8666 12.0858 10.7046Z" fill="#4A4A4A"/>
</svg>
