<svg width="16" height="16" viewBox="0 0 16 16" fill="none" xmlns="http://www.w3.org/2000/svg">
<path d="M10.9515 14.3463H5.04926C3.13395 14.3463 1.57568 12.7885 1.57568 10.8732V6.65736C1.57568 6.08272 2.04301 5.61539 2.61766 5.61539H13.3831C13.9572 5.61539 14.4245 6.08272 14.4245 6.65736V10.8732C14.4245 12.788 12.8668 14.3463 10.9515 14.3463ZM2.61766 6.10942C2.31599 6.10942 2.07021 6.3552 2.07021 6.65687V10.8727C2.07021 12.5151 3.40643 13.8513 5.04926 13.8513H10.9515C12.5938 13.8513 13.93 12.5151 13.93 10.8727V6.65687C13.93 6.3552 13.6847 6.10942 13.3831 6.10942H2.61766Z" fill="black"/>
<path d="M5.14047 6.10941C5.00398 6.10941 4.89321 5.99864 4.89321 5.86215V1.23632C4.89321 0.827347 4.56039 0.494529 4.15142 0.494529H4.06982C3.66084 0.494529 3.32803 0.827347 3.32803 1.23632V5.86215C3.32803 5.99864 3.21725 6.10941 3.08076 6.10941C2.94427 6.10941 2.8335 5.99864 2.8335 5.86215V1.23632C2.8335 0.554367 3.38786 0 4.06982 0H4.15092C4.83288 0 5.38724 0.554367 5.38724 1.23632V5.86215C5.38774 5.99864 5.27696 6.10941 5.14047 6.10941Z" fill="black"/>
<path d="M12.9193 6.10941C12.7828 6.10941 12.672 5.99864 12.672 5.86215V1.23632C12.672 0.827347 12.3392 0.494529 11.9302 0.494529H11.8491C11.4401 0.494529 11.1073 0.827347 11.1073 1.23632V5.86215C11.1073 5.99864 10.9965 6.10941 10.8601 6.10941C10.7236 6.10941 10.6128 5.99864 10.6128 5.86215V1.23632C10.6128 0.554367 11.1672 0 11.8491 0H11.9302C12.6122 0 13.1665 0.554367 13.1665 1.23632V5.86215C13.1665 5.99864 13.0558 6.10941 12.9193 6.10941Z" fill="black"/>
<path d="M9.85567 16H6.14473C6.00824 16 5.89746 15.8892 5.89746 15.7527V14.099C5.89746 13.9625 6.00824 13.8518 6.14473 13.8518H9.85567C9.99216 13.8518 10.1029 13.9625 10.1029 14.099V15.7527C10.1029 15.8892 9.99216 16 9.85567 16ZM6.39199 15.5055H9.60841V14.3463H6.39199V15.5055Z" fill="black"/>
<path d="M7.27982 11.5809L7.88068 9.92966L7.12207 9.71305L8.54434 8.02275L8.11904 9.49942L8.87765 9.71602L7.27982 11.5809Z" fill="black"/>
<path d="M7.27987 11.8282C7.23684 11.8282 7.19382 11.8173 7.15525 11.7945C7.05189 11.7342 7.00639 11.6091 7.04744 11.4963L7.5573 10.0943L7.05387 9.95042C6.97326 9.92768 6.90946 9.86536 6.88474 9.78525C6.86051 9.70514 6.87781 9.61761 6.93221 9.55332L8.35497 7.86301C8.43014 7.7735 8.55823 7.75026 8.66059 7.80417C8.76345 7.85906 8.81439 7.97873 8.78175 8.09099L8.4247 9.32929L8.94495 9.47815C9.02605 9.5009 9.08984 9.5637 9.11408 9.64431C9.1388 9.72541 9.12001 9.81294 9.06512 9.87674L7.46729 11.7416C7.41932 11.798 7.3496 11.8282 7.27987 11.8282ZM8.02364 9.72739C8.05578 9.75014 8.08249 9.7808 8.10079 9.8169C8.13194 9.87822 8.13639 9.94943 8.11265 10.0137L7.97715 10.3871L8.43954 9.84756L8.05183 9.73679C8.04194 9.73481 8.03254 9.73135 8.02364 9.72739ZM7.5568 9.58002L7.94798 9.69178C7.95787 9.69426 7.96677 9.69772 7.97616 9.70168C7.946 9.68041 7.92127 9.65222 7.90297 9.61958C7.87132 9.56222 7.86341 9.49447 7.88171 9.43117L7.98556 9.07115L7.5568 9.58002Z" fill="black"/>
</svg>
