<svg width="15" height="15" viewBox="0 0 15 15" fill="none" xmlns="http://www.w3.org/2000/svg">
<g clip-path="url(#clip0)">
<path d="M0.192725 0.9641C0.191598 0.960043 0.193701 0.968231 0.192725 0.9641V0.9641Z" fill="#4A4A4A"/>
<path d="M13.9727 10.8326C13.4857 10.4053 12.8744 10.2151 12.2518 10.2967L5.60192 11.1696L5.33945 8.62418C5.21766 7.21804 4.89047 5.84056 4.36691 4.52993L4.13221 3.94244C3.9477 3.48054 3.59645 3.1209 3.16312 2.92165C3.35405 2.49769 3.3818 2.01781 3.23408 1.56951C3.23267 1.5652 3.23112 1.56092 3.22942 1.5567C2.85984 0.631565 1.97753 0.0206066 0.981586 0.000157366C0.737835 -0.00464733 0.507913 0.100763 0.352932 0.289933C0.197922 0.479133 0.139445 0.724582 0.192443 0.963382L2.40038 10.5981C2.42686 10.7171 2.54467 10.7921 2.66376 10.7656C2.7827 10.7391 2.85767 10.6212 2.83122 10.5022L1.32146 3.71958C1.29158 3.58499 1.32456 3.44665 1.41193 3.34001C1.49932 3.23337 1.62867 3.17448 1.76627 3.17665L2.3988 3.18963C2.5294 3.19229 2.65664 3.21233 2.77802 3.24772C2.78396 3.2498 2.78997 3.25168 2.796 3.25323C3.21152 3.3802 3.55561 3.68876 3.72234 4.10612L3.95704 4.69361C4.46476 5.96457 4.78198 7.3004 4.8999 8.66399C4.89999 8.66519 4.90011 8.66639 4.90023 8.66762L5.1641 11.227L4.74501 11.282C4.46145 10.9009 3.97064 10.6997 3.47789 10.8096C2.81012 10.9586 2.38775 11.6231 2.5364 12.291C2.5367 12.2922 2.53699 12.2934 2.53725 12.2946L3.07764 14.54C3.14279 14.8109 3.38288 15 3.66146 15H12.1435C12.7698 15 13.28 14.4946 13.2884 13.8703H13.8036C14.3675 13.8703 14.8263 13.3777 14.8263 12.7722C14.8264 12.0155 14.5152 11.3085 13.9727 10.8326ZM2.74049 2.78471C2.63217 2.76321 2.52102 2.75073 2.40791 2.74841L1.77539 2.73544C1.53629 2.73007 1.3088 2.82054 1.13923 2.98551L0.622874 0.865764C0.600139 0.760706 0.626126 0.652864 0.6943 0.56966C0.762884 0.48593 0.86513 0.43967 0.972533 0.441398C1.7886 0.458186 2.51182 0.957434 2.81701 1.71397C2.93253 2.07016 2.90385 2.45219 2.74049 2.78471ZM3.66149 14.5587C3.58764 14.5587 3.52403 14.5086 3.50678 14.4368L2.96686 12.1934C2.87218 11.7635 3.14423 11.3363 3.57401 11.2404C4.00441 11.1444 4.433 11.4165 4.52953 11.849L5.15971 14.5587H3.66149ZM13.8037 13.429H11.3149C11.193 13.429 11.0942 13.5278 11.0942 13.6497C11.0942 13.7715 11.193 13.8703 11.3149 13.8703H12.8471C12.8387 14.2513 12.5264 14.5587 12.1435 14.5587H5.61282L5.45274 13.8703H10.2881C10.4099 13.8703 10.5087 13.7715 10.5087 13.6497C10.5087 13.5278 10.4099 13.429 10.2881 13.429H5.35008L4.95982 11.7509C4.95604 11.734 4.9517 11.7173 4.94725 11.7006L12.3092 10.7343C12.8041 10.6693 13.2915 10.8221 13.6816 11.1643C14.1286 11.5565 14.385 12.1426 14.385 12.7722C14.385 13.1344 14.1242 13.429 13.8037 13.429Z" fill="#4A4A4A"/>
</g>
<defs>
<clipPath id="clip0">
<rect width="15" height="15" fill="white"/>
</clipPath>
</defs>
</svg>
