<svg width="20" height="20" viewBox="0 0 20 20" fill="none" xmlns="http://www.w3.org/2000/svg">
<path d="M15.0207 8.76669C15.354 9.08335 15.3874 9.60002 15.0707 9.93335C14.904 10.1167 14.6874 10.2 14.454 10.2C14.254 10.2 14.054 10.1333 13.8874 9.98332C10.1874 6.59999 6.20404 9.81666 6.03737 9.94999C5.68737 10.25 5.15404 10.2 4.87071 9.85002C4.57071 9.50002 4.6207 8.98335 4.9707 8.68335C6.78737 7.16669 11.1874 5.25002 15.0207 8.76669ZM10.054 13.4C9.63737 13.4 9.2207 13.5667 8.93737 13.8667C8.63737 14.1667 8.4707 14.5667 8.4707 14.9833C8.4707 15.4 8.63737 15.8 8.93737 16.1C9.23737 16.4 9.63737 16.5667 10.054 16.5667C10.4707 16.5667 10.8874 16.4 11.1707 16.1C11.4707 15.8 11.6374 15.4 11.6374 14.9833C11.6374 14.5667 11.4707 14.1667 11.1707 13.8667C10.8874 13.5667 10.4707 13.4 10.054 13.4ZM17.3874 6.5C13.4374 3.05 9.6207 3.23334 7.10404 4C4.4207 4.81667 2.6707 6.43334 2.60403 6.5C2.2707 6.81667 2.25404 7.33334 2.57071 7.66667C2.88738 8 3.42071 8.01666 3.75404 7.69999C3.77071 7.68333 5.28737 6.28334 7.60404 5.58334C10.6707 4.65 13.5874 5.38334 16.304 7.75C16.454 7.88334 16.654 7.94999 16.854 7.94999C17.0874 7.94999 17.3207 7.85 17.4874 7.66667C17.7707 7.33334 17.7374 6.8 17.3874 6.5ZM7.25404 11.05C6.88737 11.3333 6.83737 11.85 7.12071 12.2167C7.40404 12.5833 7.93738 12.6334 8.28738 12.35C8.35404 12.3 10.1207 10.9333 11.6207 12.3333C11.7874 12.4833 11.9874 12.55 12.1874 12.55C12.404 12.55 12.6374 12.4667 12.804 12.2833C13.1207 11.95 13.104 11.4167 12.754 11.1167C10.7374 9.24999 8.27071 10.2667 7.25404 11.05Z" fill="#4A4A4A"/>
</svg>
