<svg width="17" height="16" viewBox="0 0 17 16" fill="none" xmlns="http://www.w3.org/2000/svg">
<g clip-path="url(#clip0)">
<path d="M11.9927 4.4588C12.222 4.65154 12.5133 4.75751 12.8122 4.75751C13.1914 4.75751 13.5484 4.59118 13.7921 4.30116C14.2449 3.76165 14.1742 2.95427 13.6347 2.5012C13.405 2.30846 13.1137 2.20233 12.8145 2.20233C12.4354 2.20233 12.0785 2.36866 11.8351 2.65868C11.3822 3.19835 11.453 4.00557 11.9927 4.4588Z" fill="white"/>
<path d="M15.008 5.92102C14.9287 5.92102 14.8487 5.92807 14.7704 5.94185C14.0347 6.0716 13.5413 6.77614 13.6711 7.51216C13.7852 8.16092 14.3454 8.6317 15.0029 8.6317C15.0819 8.6317 15.1623 8.62465 15.2409 8.61103C15.9766 8.48112 16.4698 7.77675 16.3401 7.04105C16.2256 6.39213 15.6652 5.92102 15.008 5.92102Z" fill="white"/>
<path d="M14.9609 10.3528C14.743 10.2268 14.496 10.1605 14.2467 10.1605C13.7352 10.1605 13.2589 10.4353 13.0035 10.8775C12.8124 11.2087 12.7612 11.5945 12.8604 11.9643C12.9597 12.334 13.197 12.6432 13.5279 12.8343C13.7459 12.9604 13.9929 13.0269 14.2426 13.0269C14.7537 13.0269 15.2301 12.7523 15.4853 12.3102C15.88 11.6258 15.6447 10.7478 14.9609 10.3528Z" fill="white"/>
<path d="M10.886 12.9007C10.7104 12.9007 10.5366 12.9316 10.3693 12.9923C9.99034 13.1302 9.68802 13.4076 9.51743 13.7732C9.347 14.1389 9.32912 14.549 9.4669 14.928C9.68343 15.5228 10.2539 15.9226 10.8865 15.9226C11.062 15.9226 11.2358 15.8917 11.4027 15.8309C11.7813 15.6929 12.0834 15.4157 12.2542 15.0494C12.4248 14.6836 12.4428 14.2735 12.3053 13.8951C12.0891 13.3005 11.5185 12.9007 10.886 12.9007Z" fill="white"/>
<path d="M7.04544 12.9189C6.86927 12.855 6.68653 12.8225 6.50249 12.8225C5.8375 12.8225 5.23779 13.2427 5.01027 13.8682C4.86494 14.267 4.8838 14.6982 5.06309 15.0826C5.24222 15.4671 5.56028 15.7585 5.95904 15.9037C6.13489 15.9679 6.31779 16 6.50232 16C7.16764 16 7.76719 15.5797 7.99454 14.9548C8.13954 14.5568 8.12051 14.1256 7.94106 13.7409C7.76145 13.3558 7.44355 13.0639 7.04544 12.9189Z" fill="white"/>
<path d="M4.58706 10.7607C4.29016 10.2468 3.73688 9.92773 3.14275 9.92773C2.85224 9.92773 2.56502 10.0052 2.31159 10.151C1.92611 10.3736 1.65053 10.7331 1.53555 11.1624C1.42023 11.5922 1.47928 12.0412 1.70188 12.4265C1.99878 12.9406 2.55223 13.2598 3.14636 13.2598C3.4367 13.2598 3.72392 13.1824 3.97719 13.0364C4.77242 12.5772 5.04603 11.5563 4.58706 10.7607Z" fill="white"/>
<path d="M2.38557 9.02048C3.23166 9.02048 3.95291 8.41437 4.10021 7.57927C4.18092 7.12046 4.0784 6.65788 3.81119 6.27683C3.5443 5.89528 3.14472 5.6407 2.68575 5.55967C2.58405 5.54195 2.4812 5.53293 2.38065 5.53293C1.53456 5.53293 0.813309 6.13887 0.666007 6.97398C0.585302 7.43246 0.687823 7.89504 0.955034 8.27658C1.22208 8.65796 1.62183 8.91271 2.08047 8.99358C2.18168 9.01146 2.28436 9.02048 2.38557 9.02048Z" fill="white"/>
<path d="M4.57608 5.30146C5.0024 5.30146 5.41774 5.15006 5.74564 4.8753C6.11767 4.56314 6.34584 4.12402 6.38833 3.6388C6.43081 3.15358 6.2822 2.68149 5.96988 2.30946C5.62311 1.89609 5.11411 1.65906 4.57378 1.65906C4.1468 1.65906 3.73147 1.8103 3.40406 2.08506C3.03154 2.39771 2.80288 2.83683 2.76056 3.32139C2.71807 3.80562 2.86685 4.27788 3.17966 4.65073C3.52692 5.06427 4.03575 5.30146 4.57608 5.30146Z" fill="white"/>
<path d="M8.6943 3.96178C9.78831 3.96178 10.6752 3.07491 10.6752 1.98089C10.6752 0.886875 9.78831 0 8.6943 0C7.6003 0 6.71343 0.886875 6.71343 1.98089C6.71343 3.07491 7.6003 3.96178 8.6943 3.96178Z" fill="white"/>
</g>
<defs>
<clipPath id="clip0">
<rect width="16" height="16" fill="white" transform="translate(0.5)"/>
</clipPath>
</defs>
</svg>
