<svg width="42" height="42" viewBox="0 0 42 42" fill="none" xmlns="http://www.w3.org/2000/svg">
<path d="M21.1431 0.143066C9.64258 0.143066 0.286133 9.49952 0.286133 21C0.286133 32.5006 9.64247 41.857 21.1431 41.857C32.6437 41.857 42.0002 32.5006 42.0002 21C42.0002 9.49952 32.6437 0.143066 21.1431 0.143066ZM21.1431 38.6929C11.3872 38.6929 3.45019 30.7559 3.45019 21C3.45019 11.2442 11.3872 3.30713 21.1431 3.30713C30.8991 3.30713 38.8361 11.2442 38.8361 21C38.8361 30.7559 30.8991 38.6929 21.1431 38.6929Z" fill="black"/>
<path d="M22.1641 21.7861V11.5665H19V23.4588L27.1536 29.0152L28.9355 26.4005L22.1641 21.7861Z" fill="#E92D2D"/>
</svg>
