<svg width="20" height="20" viewBox="0 0 20 20" fill="none" xmlns="http://www.w3.org/2000/svg">
<path d="M15.7692 0H4.23078C3.17309 0 2.30771 0.865385 2.30771 1.92308V15.7692C2.30771 16.3654 2.63463 16.8654 3.09617 17.2115C3.09617 17.2308 3.07694 17.2692 3.07694 17.3077V18.6538C3.07694 19.4038 3.67309 20 4.42309 20H4.80771C5.55771 20 6.15386 19.4038 6.15386 18.6538V17.6923H13.8462V18.6538C13.8462 19.4038 14.4423 20 15.1923 20H15.5769C16.3269 20 16.9231 19.4038 16.9231 18.6538V17.3077C17.3846 16.9615 17.6923 16.4038 17.6923 15.7692V1.92308C17.6923 0.865385 16.8269 0 15.7692 0ZM5.38463 18.6538C5.38463 18.9808 5.13463 19.2308 4.80771 19.2308H4.42309C4.09617 19.2308 3.84617 18.9808 3.84617 18.6538V17.5962C4.03848 17.6538 4.23078 17.6923 4.42309 17.6923H5.38463V18.6538ZM16.1539 18.6538C16.1539 18.9808 15.9039 19.2308 15.5769 19.2308H15.1923C14.8654 19.2308 14.6154 18.9808 14.6154 18.6538V17.6923H15.7692C15.9039 17.6923 16.0385 17.6731 16.1539 17.6538V18.6538ZM16.9231 15.7692C16.9231 16.4038 16.4039 16.9231 15.7692 16.9231H4.42309C3.80771 16.9231 3.07694 16.4038 3.07694 15.7692V12.3077H16.9231V15.7692ZM16.9231 11.5385H3.07694V3.84615H16.9231V11.5385ZM16.9231 3.07692H3.07694V1.92308C3.07694 1.28846 3.59617 0.769231 4.23078 0.769231H15.7692C16.4039 0.769231 16.9231 1.28846 16.9231 1.92308V3.07692Z" fill="white"/>
<path d="M9.23081 1.53845H6.73081C6.51927 1.53845 6.34619 1.71153 6.34619 1.92307C6.34619 2.13461 6.51927 2.30768 6.73081 2.30768H9.23081C9.44235 2.30768 9.61542 2.13461 9.61542 1.92307C9.61542 1.71153 9.44235 1.53845 9.23081 1.53845Z" fill="white"/>
<path d="M11.5385 1.53845H10.9616C10.75 1.53845 10.5769 1.71153 10.5769 1.92307C10.5769 2.13461 10.75 2.30768 10.9616 2.30768H11.5385C11.75 2.30768 11.9231 2.13461 11.9231 1.92307C11.9231 1.71153 11.75 1.53845 11.5385 1.53845Z" fill="white"/>
<path d="M5.19233 15.5769C5.82694 15.5769 6.34618 15.0577 6.34618 14.4231C6.34618 13.7885 5.82694 13.2692 5.19233 13.2692C4.55771 13.2692 4.03848 13.7885 4.03848 14.4231C4.03848 15.0577 4.55771 15.5769 5.19233 15.5769ZM5.19233 14.0385C5.40387 14.0385 5.57694 14.2115 5.57694 14.4231C5.57694 14.6346 5.40387 14.8077 5.19233 14.8077C4.98079 14.8077 4.80771 14.6346 4.80771 14.4231C4.80771 14.2115 4.98079 14.0385 5.19233 14.0385Z" fill="white"/>
<path d="M14.8077 15.5769C15.4423 15.5769 15.9616 15.0577 15.9616 14.4231C15.9616 13.7885 15.4423 13.2692 14.8077 13.2692C14.1731 13.2692 13.6539 13.7885 13.6539 14.4231C13.6539 15.0577 14.1731 15.5769 14.8077 15.5769ZM14.8077 14.0385C15.0193 14.0385 15.1923 14.2115 15.1923 14.4231C15.1923 14.6346 15.0193 14.8077 14.8077 14.8077C14.5962 14.8077 14.4231 14.6346 14.4231 14.4231C14.4231 14.2115 14.5962 14.0385 14.8077 14.0385Z" fill="white"/>
</svg>
