<svg width="21" height="21" viewBox="0 0 21 21" fill="none" xmlns="http://www.w3.org/2000/svg">
<g clip-path="url(#clip0)">
<path d="M11.5419 4.15793C11.8399 3.53285 12.2109 2.75491 11.8226 1.86164C11.4049 0.90064 10.585 0.533068 10.1335 0.399454C9.98839 0.356531 9.83852 0.414663 9.76052 0.543833C9.6823 0.673495 9.70093 0.833631 9.80684 0.942318C10.1791 1.32434 10.2524 1.71778 10.0246 2.11163C9.94639 2.24679 9.82786 2.38218 9.66203 2.52539C9.573 2.60248 9.56288 2.73752 9.64005 2.82683C9.71723 2.91613 9.85217 2.92596 9.94149 2.8488C10.1438 2.67386 10.2921 2.50277 10.3946 2.32564C10.5843 1.99758 10.6306 1.66097 10.5322 1.32524C10.4931 1.192 10.4318 1.06165 10.3489 0.935175C10.7452 1.11687 11.1749 1.44383 11.4306 2.03204C11.7412 2.7467 11.4303 3.3987 11.156 3.97396C10.9527 4.40035 10.7606 4.80311 10.8594 5.17769C10.9281 5.43837 11.1127 5.59128 11.3658 5.59726C11.9053 5.60991 12.6145 4.94127 12.9423 4.14614C13.1039 4.4832 13.2753 5.0292 13.1892 5.73437C13.0812 6.61989 12.1372 7.41166 11.6787 7.74783L11.1556 7.75053C11.2189 7.5358 11.305 7.32587 11.3834 7.20496C11.5726 6.91286 11.5271 6.71807 11.4557 6.6061C11.3094 6.37692 10.9659 6.31396 10.3419 6.40195C10.2364 6.41682 10.1608 6.39588 10.0967 6.33408C9.86657 6.11203 9.84222 5.44167 9.88095 5.07144C9.89024 4.98373 9.84471 4.89934 9.76632 4.85894C9.68795 4.81856 9.59277 4.83044 9.52677 4.88892C9.4954 4.91674 8.7552 5.57897 8.51479 6.4021C8.39742 6.80383 8.46662 7.30603 8.55922 7.69333C7.52287 6.95218 7.42215 6.12054 7.52784 5.54166C7.71784 4.50097 8.38826 3.95933 9.1176 3.45191C9.21465 3.38439 9.23838 3.2513 9.171 3.15443C9.10361 3.05754 8.97042 3.03363 8.87352 3.10103C8.1 3.63916 7.32645 4.26499 7.10738 5.46489C6.95109 6.32094 7.25595 7.12117 7.97071 7.76706L7.15643 7.77127C7.03113 7.77192 6.9158 7.83521 6.84772 7.94038C6.77972 8.04563 6.76952 8.17685 6.82043 8.29135L6.83365 8.32112C7.04153 8.78877 7.36729 9.1894 7.77447 9.48811C7.76689 9.49478 7.75925 9.5014 7.75206 9.50866C7.67059 9.59097 7.62609 9.70007 7.62669 9.81584L7.62894 10.2508C7.62954 10.3665 7.67519 10.4752 7.75748 10.5566C7.8398 10.6381 7.94889 10.6826 8.06468 10.682L8.34203 10.6806L9.69072 19.1228C9.74896 19.4875 10.0593 19.7508 10.4285 19.7488C10.6334 19.7478 10.8192 19.6653 10.9534 19.5297C11.0612 19.4208 11.1357 19.2777 11.1599 19.1149L12.4167 10.6594L12.6656 10.6581C12.7814 10.6575 12.8901 10.6119 12.9715 10.5296C13.053 10.4473 13.0975 10.3382 13.0969 10.2224L13.0947 9.78746C13.0941 9.67169 13.0484 9.56304 12.9661 9.4816C12.963 9.47849 12.9595 9.4758 12.9563 9.4728C13.0772 9.38351 13.1911 9.28575 13.2964 9.1794C13.5583 8.91482 13.769 8.60032 13.9151 8.25022C13.963 8.13544 13.9502 8.00525 13.881 7.90192C13.8117 7.7986 13.6961 7.73733 13.5718 7.73801L12.3701 7.74423C12.4836 7.64593 12.5876 7.54893 12.6817 7.45383C13.3863 6.74191 13.5714 6.13124 13.6135 5.78611C13.7341 4.79758 13.4099 4.07589 13.2059 3.73367C13.14 3.62309 13.0148 3.56125 12.887 3.57617C12.759 3.59112 12.6513 3.6803 12.6126 3.80338C12.3639 4.59383 11.6909 5.1773 11.3759 5.1699C11.3398 5.16906 11.2989 5.1681 11.2727 5.0687C11.2139 4.84566 11.3659 4.52694 11.5419 4.15793ZM8.92503 6.52187C9.02814 6.16896 9.24903 5.84103 9.4444 5.60113C9.46494 5.96036 9.54666 6.39696 9.79959 6.64131C9.9584 6.79473 10.1666 6.85829 10.4016 6.82516C10.9013 6.75469 11.0544 6.81414 11.0895 6.83398C11.0865 6.85245 11.0742 6.89601 11.0246 6.97253C10.9076 7.15321 10.7874 7.45667 10.7118 7.75281L9.01854 7.76157C8.92925 7.44098 8.81466 6.89964 8.92503 6.52187ZM12.6672 9.78969L12.6695 10.2246C12.6695 10.2265 12.6654 10.2307 12.6634 10.2307L10.0532 10.2442C9.93519 10.2449 9.83999 10.341 9.84057 10.459C9.84118 10.5771 9.93734 10.6723 10.0554 10.6717L11.9842 10.6617L10.7371 19.052C10.7139 19.2073 10.5833 19.3206 10.4263 19.3214C10.2694 19.3222 10.1375 19.2104 10.1128 19.0554L8.77453 10.6783L9.06106 10.6768C9.17905 10.6762 9.27424 10.58 9.27367 10.462C9.27306 10.3439 9.1769 10.2487 9.05883 10.2493L8.06245 10.2545C8.0615 10.2545 8.05993 10.2545 8.05816 10.2527C8.05638 10.251 8.05637 10.2494 8.05637 10.2485L8.05412 9.81354C8.05411 9.81166 8.05823 9.80746 8.06017 9.80747L12.6672 9.78969L12.6612 9.78364C12.6621 9.78363 12.6637 9.78362 12.6655 9.78538C12.6672 9.78716 12.6672 9.78875 12.6672 9.78969ZM13.4855 8.16588C13.2478 8.68396 12.8408 9.10382 12.3289 9.35789L8.41602 9.37814C7.9026 9.1298 7.49051 8.71356 7.24745 8.19816L13.4855 8.16588Z" fill="white"/>
</g>
<g clip-path="url(#clip1)">
<path d="M14.3544 13.4401C13.9117 13.6455 13.7621 14.0312 13.614 14.4129C13.525 14.6424 13.4365 14.8705 13.2852 15.0569C13.0699 15.3221 12.9303 15.6216 12.7913 15.9197C12.6823 16.1533 12.5737 16.3861 12.4294 16.6011L14.3544 13.4401ZM14.3544 13.4401C14.5168 13.365 14.5526 13.0088 14.4168 12.894M14.3544 13.4401L14.4168 12.894M12.2017 16.2582C12.29 16.1066 12.3662 15.9436 12.4511 15.7618C12.4661 15.7296 12.4814 15.6969 12.4971 15.6635C12.6228 15.396 12.7708 15.0956 12.994 14.8206L12.9941 14.8205C13.0629 14.7357 13.1197 14.6296 13.1777 14.4937C13.2067 14.426 13.234 14.3557 13.264 14.2783L13.2654 14.2748C13.2942 14.2003 13.3257 14.1193 13.3601 14.0386C13.4944 13.7235 13.6948 13.3618 14.1248 13.1354C13.9831 12.9996 13.9055 12.85 13.8528 12.7223C13.8319 12.6716 13.8123 12.6175 13.7963 12.5734C13.7917 12.5607 13.7874 12.5488 13.7834 12.538C13.7637 12.4843 13.7477 12.4445 13.7301 12.41L14.0645 12.2403M12.2017 16.2582L13.5781 12.3026C13.6028 12.2823 13.6221 12.2694 13.636 12.2612C13.6381 12.2636 13.6403 12.2662 13.6427 12.2691C13.6675 12.2991 13.697 12.345 13.7304 12.4106L14.0645 12.2403M12.2017 16.2582C12.1429 16.2011 12.0768 16.1528 12.0026 16.1163C11.8546 16.0435 11.7035 16.0317 11.5675 16.0546C11.3207 16.0963 11.1178 16.2543 11.0007 16.3534L11.0001 16.3539C10.9925 16.3604 10.9847 16.367 10.9768 16.3736C10.7046 16.6044 10.3103 16.9387 10.2413 17.5277L10.2412 17.5283C10.2371 17.5636 10.2237 17.5877 10.1919 17.6121C10.1534 17.6417 10.0829 17.6732 9.97638 17.6847L9.97572 17.6848C9.93745 17.689 9.90606 17.6908 9.86609 17.693C9.84168 17.6944 9.81406 17.6959 9.77972 17.6983C9.70046 17.7038 9.60332 17.7134 9.49749 17.7403L9.4969 17.7404C9.26373 17.8 9.11839 17.8357 9.01079 17.8499C8.93717 17.8597 8.90872 17.855 8.90171 17.8531C8.89733 17.8505 8.86999 17.8313 8.81371 17.7476C8.74643 17.6476 8.66894 17.5048 8.54854 17.2824L8.54837 17.282C8.41402 17.0344 8.23694 16.7953 7.98644 16.6315C7.72646 16.4615 7.41836 16.3927 7.06634 16.4373L7.06545 16.4374C7.00478 16.4453 6.95231 16.4506 6.90736 16.453C6.91298 16.438 6.91948 16.4216 6.92701 16.4039L6.97893 16.2815L6.94219 16.1538C6.77969 15.5888 6.92163 15.1275 7.33367 14.6494L7.33377 14.6493C7.56386 14.3821 7.68819 13.9342 7.49371 13.4881L7.49357 13.4877C7.47683 13.4495 7.45977 13.3668 7.46626 13.2334C7.47246 13.106 7.49889 12.959 7.54228 12.812C7.58567 12.665 7.64286 12.5285 7.7043 12.4208C7.76973 12.3061 7.823 12.2538 7.84467 12.2393L7.8448 12.2392C8.07364 12.0852 8.50648 12.0898 8.98896 12.488L8.98938 12.4883C8.99186 12.4904 8.99484 12.4929 8.9983 12.4958C9.03423 12.5259 9.12124 12.599 9.2246 12.6398C9.37976 12.7012 9.55253 12.6909 9.71121 12.5934L12.2017 16.2582ZM14.0645 12.2403C14.0993 12.3088 14.1251 12.3801 14.151 12.4515M14.0645 12.2403L14.151 12.4515M14.4168 12.894C14.2648 12.7655 14.2078 12.6083 14.151 12.4515M14.4168 12.894L14.151 12.4515M11.2429 16.6397C11.4703 16.4473 11.784 16.2567 12.0341 16.6437L11.2429 16.6397ZM8.89988 17.8525C8.89993 17.8525 8.90056 17.8526 8.90161 17.8531L8.89988 17.8525Z" fill="white" stroke="white" stroke-width="0.75"/>
</g>
<defs>
<clipPath id="clip0">
<rect width="14.2128" height="14.2128" fill="white" transform="translate(0.287598 10.1018) rotate(-45.2965)"/>
</clipPath>
<clipPath id="clip1">
<rect width="8" height="8" fill="white" transform="translate(6.49985 11)"/>
</clipPath>
</defs>
</svg>
