<svg width="46" height="46" viewBox="0 0 46 46" fill="none" xmlns="http://www.w3.org/2000/svg">
<g clip-path="url(#clip0)">
<path d="M40.6094 3.59375H38.4531V0H34.8594V3.59375H11.1406V0H7.54688V3.59375H5.39062C2.41823 3.59375 0 6.01198 0 8.98438V40.6094C0 43.5818 2.41823 46 5.39062 46H40.6094C43.5818 46 46 43.5818 46 40.6094V8.98438C46 6.01198 43.5818 3.59375 40.6094 3.59375ZM42.4062 40.6094C42.4062 41.6002 41.6002 42.4062 40.6094 42.4062H5.39062C4.39983 42.4062 3.59375 41.6002 3.59375 40.6094V16.8906H42.4062V40.6094ZM42.4062 13.2969H3.59375V8.98438C3.59375 7.99358 4.39983 7.1875 5.39062 7.1875H7.54688V10.7812H11.1406V7.1875H34.8594V10.7812H38.4531V7.1875H40.6094C41.6002 7.1875 42.4062 7.99358 42.4062 8.98438V13.2969Z" fill="black"/>
<path d="M10.4219 20.6641H6.82812V24.2578H10.4219V20.6641Z" fill="#E92D2D"/>
<path d="M17.6094 20.6641H14.0156V24.2578H17.6094V20.6641Z" fill="#E92D2D"/>
<path d="M24.7969 20.6641H21.2031V24.2578H24.7969V20.6641Z" fill="#E92D2D"/>
<path d="M31.9844 20.6641H28.3906V24.2578H31.9844V20.6641Z" fill="#E92D2D"/>
<path d="M39.1719 20.6641H35.5781V24.2578H39.1719V20.6641Z" fill="#E92D2D"/>
<path d="M10.4219 27.8516H6.82812V31.4453H10.4219V27.8516Z" fill="#E92D2D"/>
<path d="M17.6094 27.8516H14.0156V31.4453H17.6094V27.8516Z" fill="#E92D2D"/>
<path d="M24.7969 27.8516H21.2031V31.4453H24.7969V27.8516Z" fill="#E92D2D"/>
<path d="M31.9844 27.8516H28.3906V31.4453H31.9844V27.8516Z" fill="#E92D2D"/>
<path d="M10.4219 35.0391H6.82812V38.6328H10.4219V35.0391Z" fill="#E92D2D"/>
<path d="M17.6094 35.0391H14.0156V38.6328H17.6094V35.0391Z" fill="#E92D2D"/>
<path d="M24.7969 35.0391H21.2031V38.6328H24.7969V35.0391Z" fill="#E92D2D"/>
<path d="M31.9844 35.0391H28.3906V38.6328H31.9844V35.0391Z" fill="#E92D2D"/>
<path d="M39.1719 27.8516H35.5781V31.4453H39.1719V27.8516Z" fill="#E92D2D"/>
<rect x="31.7246" y="31.7241" width="15.8621" height="14.2759" fill="white"/>
<path d="M34.8965 36.5667L43.6206 44.4977" stroke="#E92D2D" stroke-linecap="round" stroke-linejoin="round"/>
<path d="M35.3984 44.4977L43.9124 36.4827" stroke="#E92D2D" stroke-linecap="round" stroke-linejoin="round"/>
</g>
<defs>
<clipPath id="clip0">
<rect width="46" height="46" fill="white"/>
</clipPath>
</defs>
</svg>
