<svg width="21" height="20" viewBox="0 0 21 20" fill="none" xmlns="http://www.w3.org/2000/svg">
<g clip-path="url(#clip0)">
<path d="M20.3016 9.7395L19.1477 9.06946L18.4884 6.25271C18.3129 5.50298 17.6526 4.97938 16.8827 4.97938H13.5666V4.45333C13.5666 4.23329 13.3882 4.05493 13.1682 4.05493H0.898398C0.678398 4.05493 0.5 4.23329 0.5 4.45333V13.9499C0.5 14.1699 0.678398 14.3483 0.898398 14.3483H2.17883C2.36398 15.2581 3.17023 15.945 4.13395 15.945C5.09766 15.945 5.90394 15.2581 6.0891 14.3483H14.1546V14.3483C14.3397 15.2582 15.146 15.945 16.1097 15.945C17.0734 15.945 17.8797 15.2582 18.0648 14.3483H20.1016C20.3216 14.3483 20.5 14.1699 20.5 13.9499V10.084C20.5 9.94208 20.4245 9.81083 20.3016 9.7395ZM4.13395 15.1483C3.4732 15.1483 2.93563 14.6107 2.93563 13.9499C2.93563 13.2892 3.4732 12.7516 4.13395 12.7516C4.79473 12.7516 5.3323 13.2892 5.3323 13.9499C5.3323 14.6107 4.79473 15.1483 4.13395 15.1483ZM12.7699 12.1228H9.17637C8.95637 12.1228 8.77797 12.3012 8.77797 12.5212C8.77797 12.7413 8.95637 12.9196 9.17637 12.9196H12.7699V13.5515H6.0891C5.90394 12.6416 5.09766 11.9547 4.13395 11.9547C3.17023 11.9547 2.36398 12.6416 2.17883 13.5515H1.2968V11.4909H12.7699V12.1228ZM12.7699 5.37782V10.6942H1.2968V4.85177H12.7699V5.37782ZM15.8778 5.77626H16.8828C17.2807 5.77622 17.622 6.04685 17.7126 6.43431L18.2966 8.92931H15.8778V5.77626H15.8778ZM16.1097 15.1483C15.4758 15.1483 14.9555 14.6534 14.9143 14.0297C14.9196 14.004 14.9223 13.9773 14.9223 13.9499C14.9223 13.9226 14.9195 13.8959 14.9143 13.8701C14.9555 13.2465 15.4758 12.7516 16.1097 12.7516C16.7705 12.7516 17.308 13.2892 17.308 13.9499C17.308 14.6107 16.7705 15.1483 16.1097 15.1483ZM19.7032 11.6606H18.9453V11.2389H19.7032V11.6606ZM19.7032 10.4421H18.5469C18.3269 10.4421 18.1485 10.6204 18.1485 10.8405V12.059C18.1485 12.2791 18.3269 12.4574 18.5469 12.4574H19.7032V13.5515H18.0648C17.8797 12.6416 17.0734 11.9547 16.1097 11.9547C15.146 11.9547 14.3397 12.6416 14.1546 13.5515H13.5667V5.77622H15.081V9.32771C15.081 9.54774 15.2594 9.7261 15.4794 9.7261H18.6917L19.7032 10.3135V10.4421H19.7032Z" fill="white"/>
<path d="M7.83177 12.1228H7.4956C7.2756 12.1228 7.0972 12.3012 7.0972 12.5212C7.0972 12.7412 7.27556 12.9196 7.4956 12.9196H7.83177C8.05177 12.9196 8.23017 12.7412 8.23017 12.5212C8.23017 12.3012 8.05177 12.1228 7.83177 12.1228Z" fill="white"/>
</g>
<defs>
<clipPath id="clip0">
<rect width="20" height="20" fill="white" transform="translate(0.5)"/>
</clipPath>
</defs>
</svg>
