<svg width="21" height="20" viewBox="0 0 21 20" fill="none" xmlns="http://www.w3.org/2000/svg">
<g clip-path="url(#clip0)">
<path d="M19.735 8.01282L19.2991 7.55128L17.7692 3.42735C17.5085 2.73077 16.8419 2.26923 16.0983 2.26495H5.17094C4.42735 2.26495 3.76068 2.73077 3.5 3.42735L1.99145 7.5L1.36325 8.08119C0.816239 8.547 0.5 9.23077 0.5 9.94871V15.9573C0.504274 16.9402 1.30342 17.735 2.28632 17.735H3.41453C4.39744 17.735 5.19658 16.9402 5.20085 15.9573V15.0855H15.7991V15.9573C15.8034 16.9402 16.6026 17.735 17.5855 17.735H18.7137C19.6966 17.735 20.4957 16.9402 20.5 15.9573V9.79059C20.4957 9.11965 20.2222 8.47863 19.735 8.01282ZM4.30342 3.71794C4.44017 3.3547 4.78632 3.11965 5.17094 3.11965H16.1026C16.4872 3.11965 16.8333 3.35897 16.9701 3.71794L18.3034 7.30769H17.3077C17.0726 5.70512 15.5812 4.59829 13.9786 4.8376C12.7009 5.02564 11.6966 6.02991 11.5085 7.30769H2.97009L4.30342 3.71794ZM16.4359 7.30769H12.3718C12.6068 6.18376 13.7094 5.46581 14.8333 5.70085C15.6368 5.87179 16.265 6.5 16.4359 7.30769ZM4.34615 15.9573C4.34188 16.4701 3.92735 16.8803 3.41453 16.8803H2.28632C1.7735 16.8803 1.35897 16.4701 1.3547 15.9573V14.8376C1.61111 15.0043 1.94872 15.0855 2.28632 15.0855H4.34615V15.9573ZM19.6453 15.9573C19.641 16.4701 19.2265 16.8803 18.7137 16.8803H17.5855C17.0726 16.8803 16.6581 16.4658 16.6538 15.9573V15.0855H18.7137C19.0513 15.0855 19.3889 15.0043 19.6453 14.8376V15.9573ZM18.7137 14.2308H2.28632C1.77778 14.235 1.35897 13.8291 1.3547 13.3162V9.94871C1.3547 9.47863 1.5641 9.02991 1.92308 8.72649C1.92735 8.72222 1.9359 8.71367 1.94017 8.7094L2.52137 8.16239H18.7051L19.1154 8.60256C19.1197 8.61111 19.1325 8.61538 19.1368 8.62393C19.4573 8.92735 19.641 9.35042 19.641 9.79059V13.3162H19.6453C19.641 13.8248 19.2222 14.235 18.7137 14.2308Z" fill="white"/>
<path d="M6.14102 7.05127H2.9359C2.70085 7.05127 2.50854 7.24358 2.50854 7.47862V9.70084C2.50854 9.93589 2.70085 10.1282 2.9359 10.1282H6.14102C6.37607 10.1282 6.56838 9.93589 6.56838 9.70084V7.47862C6.56838 7.24358 6.37607 7.05127 6.14102 7.05127ZM5.71367 9.27349H3.36325V7.90597H5.71367V9.27349Z" fill="white"/>
<path d="M18.0641 7.05127H14.859C14.6239 7.05127 14.4316 7.24358 14.4316 7.47862V9.70084C14.4316 9.93589 14.6239 10.1282 14.859 10.1282H18.0641C18.2991 10.1282 18.4915 9.93589 18.4915 9.70084V7.47862C18.4915 7.24358 18.2991 7.05127 18.0641 7.05127ZM17.6368 9.27349H15.2863V7.90597H17.6368V9.27349Z" fill="white"/>
<path d="M12.5641 7.47864H8.4359C8.20085 7.47864 8.00854 7.67095 8.00854 7.90599C8.00854 8.14103 8.20085 8.33334 8.4359 8.33334H12.5641C12.7991 8.33334 12.9915 8.14103 12.9915 7.90599C12.9915 7.67095 12.7991 7.47864 12.5641 7.47864Z" fill="white"/>
<path d="M12.5641 8.80344H8.4359C8.20085 8.80344 8.00854 8.99574 8.00854 9.23079C8.00854 9.46583 8.20085 9.65814 8.4359 9.65814H12.5641C12.7991 9.65814 12.9915 9.46583 12.9915 9.23079C12.9915 8.99574 12.7991 8.80344 12.5641 8.80344Z" fill="white"/>
</g>
<defs>
<clipPath id="clip0">
<rect width="20" height="20" fill="white" transform="matrix(1 0 0 -1 0.5 20)"/>
</clipPath>
</defs>
</svg>
