<svg width="52" height="52" viewBox="0 0 52 52" fill="none" xmlns="http://www.w3.org/2000/svg">
<g clip-path="url(#clip0)">
<path d="M15.8941 12.4134C7.80853 16.9205 4.89718 27.1653 9.40424 35.2509C13.9113 43.3364 24.1562 46.2478 32.2418 41.7407C32.7221 41.4729 32.8945 40.8664 32.6267 40.3861C32.359 39.9058 31.7525 39.7335 31.2722 40.0012C24.1457 43.9737 15.1162 41.4077 11.1438 34.2813C7.17137 27.1549 9.73733 18.1253 16.8637 14.1528C23.9901 10.1805 33.0197 12.7464 36.9921 19.8728L37.8332 21.3818L34.2154 20.5704C33.6788 20.45 33.1462 20.7876 33.0258 21.3242C32.9054 21.8607 33.2431 22.3933 33.7796 22.5137L38.9512 23.6735C39.7978 23.8633 40.6502 23.3882 40.9339 22.5683L42.6671 17.5596C42.7637 17.2805 42.7289 16.9879 42.5957 16.7489C42.4807 16.5426 42.2923 16.3763 42.0518 16.2929C41.532 16.1131 40.9649 16.3886 40.7851 16.9083L39.5727 20.4121L38.7315 18.9032C34.2244 10.8176 23.9796 7.90637 15.8941 12.4134Z" fill="black"/>
<path d="M19.2469 35C19.1135 35 19.0002 34.96 18.9069 34.88C18.8269 34.7867 18.7869 34.6733 18.7869 34.54V21.48C18.7869 21.3333 18.8269 21.22 18.9069 21.14C19.0002 21.0467 19.1135 21 19.2469 21H20.1669C20.4069 21 20.5735 21.0933 20.6669 21.28L27.3069 31.48V21.48C27.3069 21.3333 27.3469 21.22 27.4269 21.14C27.5202 21.0467 27.6335 21 27.7669 21H28.7269C28.8735 21 28.9869 21.0467 29.0669 21.14C29.1602 21.22 29.2069 21.3333 29.2069 21.48V34.52C29.2069 34.6533 29.1602 34.7667 29.0669 34.86C28.9869 34.9533 28.8802 35 28.7469 35H27.7869C27.5869 35 27.4269 34.9067 27.3069 34.72L20.6869 24.62V34.54C20.6869 34.6733 20.6402 34.7867 20.5469 34.88C20.4535 34.96 20.3402 35 20.2069 35H19.2469Z" fill="#E92D2D"/>
<path d="M17.0469 28.76H30.9469V29.76H17.0469V28.76Z" fill="#E92D2D"/>
<rect x="17" y="26" width="14" height="1" fill="#E92D2D"/>
</g>
<defs>
<clipPath id="clip0">
<rect width="38" height="38" fill="white" transform="matrix(-0.486889 -0.873464 -0.873464 0.486889 51.8467 33.345)"/>
</clipPath>
</defs>
</svg>
