<svg width="20" height="15" viewBox="0 0 20 15" fill="none" xmlns="http://www.w3.org/2000/svg">
<path fill-rule="evenodd" clip-rule="evenodd" d="M0.639867 4.88793C0.639867 4.92811 0.600006 4.9683 0.600006 5.00848V5.04867V5.20941V5.37015V5.41034C0.600006 5.45052 0.639867 5.49071 0.639867 5.53089C0.639867 5.53089 0.639867 5.57108 0.679728 5.57108C0.679728 5.61126 0.719589 5.65145 0.719589 5.65145L0.759451 5.69163C0.799312 5.73182 0.799312 5.73182 0.839173 5.772C0.839173 5.772 0.833494 5.80193 0.940762 5.86733C1.04803 5.93274 1.14335 5.93274 1.14335 5.93274C1.21319 5.93274 1.28086 5.93274 1.34643 5.93274C3.46511 5.93274 3.39028 5.93274 3.39028 5.93274H18.4976C18.9361 5.93274 19.2949 5.57108 19.2949 5.12904C19.2949 4.687 18.9361 4.32534 18.4976 4.32534H3.43014L6.37987 1.79367C6.69876 1.51237 6.73862 0.989965 6.45959 0.668484C6.18056 0.347002 5.66237 0.306817 5.34348 0.588113L0.879034 4.60663C0.839173 4.64682 0.799312 4.687 0.799312 4.687L0.759451 4.72719C0.719589 4.76737 0.719589 4.80756 0.679728 4.84774C0.679728 4.84774 0.679728 4.88793 0.639867 4.88793ZM19.2949 10.0316C19.2949 9.99145 19.3347 9.95126 19.3347 9.91108V9.87089V9.71015V9.54941V9.50922C19.3347 9.46904 19.2949 9.42885 19.2949 9.38867C19.2949 9.38867 19.2949 9.34848 19.255 9.34848C19.255 9.3083 19.2151 9.26811 19.2151 9.26811L19.1753 9.22793C19.1354 9.18774 19.1354 9.18774 19.0956 9.14756C19.0956 9.14756 19.1012 9.11763 18.994 9.05223C18.8867 8.98682 18.7914 8.98682 18.7914 8.98682C18.7215 8.98682 18.6539 8.98682 18.5883 8.98682C16.4696 8.98682 16.5445 8.98682 16.5445 8.98682H1.43709C0.998617 8.98682 0.639867 9.34848 0.639867 9.79052C0.639867 10.2326 0.998617 10.5942 1.43709 10.5942H16.5046L13.5549 13.1259C13.236 13.4072 13.1961 13.9296 13.4751 14.2511C13.7542 14.5726 14.2724 14.6127 14.5913 14.3314L19.0557 10.3129C19.0956 10.2727 19.1354 10.2326 19.1354 10.2326L19.1753 10.1924C19.2151 10.1522 19.2151 10.112 19.255 10.0718C19.255 10.0718 19.255 10.0316 19.2949 10.0316Z" fill="#E11D1D"/>
</svg>
